<svg width="28" height="28" viewBox="0 0 28 28" fill="none" xmlns="http://www.w3.org/2000/svg">
<mask id="mask0_14_477" style="mask-type:luminance" maskUnits="userSpaceOnUse" x="0" y="0" width="28" height="28">
<path d="M0 0H28V28H0V0Z" fill="white"/>
</mask>
<g mask="url(#mask0_14_477)">
<path d="M0.820313 22.7647C0.820149 23.2308 1.00521 23.6778 1.3347 24.0074C1.66425 24.3371 2.11116 24.5223 2.57726 24.5223H25.4227C26.3931 24.5223 27.1797 23.7357 27.1797 22.7654V8.70993C27.1797 8.24399 26.9946 7.79709 26.6651 7.4676C26.3356 7.13811 25.8888 6.95299 25.4227 6.95299H22.6367C22.1707 6.95299 21.7238 6.76793 21.3944 6.43843C20.7369 5.78098 19.6057 4.64982 18.9483 3.99242C18.6188 3.66293 18.1719 3.47782 17.706 3.47782H10.2995C9.83352 3.47782 9.38673 3.66293 9.05723 3.99242C8.39978 4.64982 7.26857 5.78098 6.61123 6.43843C6.28168 6.76793 5.83477 6.95299 5.36889 6.95299H2.58213C1.61208 6.95299 0.825563 7.73923 0.82518 8.70933C0.824031 12.0751 0.821461 19.398 0.820313 22.7647Z" stroke="#373737" stroke-width="2" stroke-miterlimit="10" stroke-linecap="round" stroke-linejoin="round"/>
<path d="M14.0027 9.58841C16.9118 9.58841 19.2735 11.9502 19.2735 14.8592C19.2735 17.7682 16.9118 20.13 14.0027 20.13C11.0937 20.13 8.73193 17.7682 8.73193 14.8592C8.73193 11.9502 11.0937 9.58841 14.0027 9.58841Z" stroke="#373737" stroke-width="2" stroke-miterlimit="10" stroke-linecap="round" stroke-linejoin="round"/>
</g>
</svg>
