<svg width="25" height="21" viewBox="0 0 25 21" fill="none" xmlns="http://www.w3.org/2000/svg">
<path d="M22.6303 8.44862L4.0733 0.748608C3.29153 0.424182 2.40836 0.566899 1.76841 1.12088C1.12845 1.67494 0.860806 2.52859 1.06996 3.34878L2.89352 10.5L1.06996 17.6512C0.860806 18.4714 1.12841 19.325 1.76836 19.8791C2.40953 20.4342 3.29292 20.5751 4.0733 20.2514L22.6303 12.5513C23.4752 12.2008 24 11.4147 24 10.5C24 9.58523 23.4752 8.79919 22.6303 8.44862ZM22.1137 11.3066L3.55679 19.0066C3.24472 19.136 2.90596 19.0814 2.65049 18.8602C2.39507 18.639 2.29242 18.3116 2.37589 17.9841L4.11252 11.1738H10.8088C11.181 11.1738 11.4827 10.8721 11.4827 10.4999C11.4827 10.1278 11.181 9.82606 10.8088 9.82606H4.11257L2.37589 3.01582C2.29242 2.68842 2.39507 2.36094 2.65049 2.13979C2.90592 1.91864 3.24459 1.86393 3.55675 1.99339L22.1137 9.69341C22.6135 9.90077 22.6523 10.3632 22.6523 10.5C22.6523 10.6368 22.6135 11.0992 22.1137 11.3066Z" fill="#2EA5E1" stroke="#2EA5E1" stroke-width="0.6"/>
</svg>
