<svg width="33" height="33" viewBox="0 0 33 33" fill="none" xmlns="http://www.w3.org/2000/svg">
<path d="M26.2969 4.125H6.70312C5.7467 4.12772 4.83022 4.50887 4.15392 5.18517C3.47762 5.86147 3.09647 6.77795 3.09375 7.73438V20.1094C3.09647 21.0658 3.47762 21.9823 4.15392 22.6586C4.83022 23.3349 5.7467 23.716 6.70312 23.7188H9.28125V28.875L15.3218 23.8386C15.4146 23.7612 15.5316 23.7187 15.6524 23.7188H26.2969C27.2533 23.716 28.1698 23.3349 28.8461 22.6586C29.5224 21.9823 29.9035 21.0658 29.9062 20.1094V7.73438C29.9035 6.77795 29.5224 5.86147 28.8461 5.18517C28.1698 4.50887 27.2533 4.12772 26.2969 4.125Z" stroke="white" stroke-width="2" stroke-linejoin="round"/>
<path d="M10.3125 15.9844C11.4516 15.9844 12.375 15.061 12.375 13.9219C12.375 12.7828 11.4516 11.8594 10.3125 11.8594C9.17341 11.8594 8.25 12.7828 8.25 13.9219C8.25 15.061 9.17341 15.9844 10.3125 15.9844Z" fill="white"/>
<path d="M16.5 15.9844C17.6391 15.9844 18.5625 15.061 18.5625 13.9219C18.5625 12.7828 17.6391 11.8594 16.5 11.8594C15.3609 11.8594 14.4375 12.7828 14.4375 13.9219C14.4375 15.061 15.3609 15.9844 16.5 15.9844Z" fill="white"/>
<path d="M22.6875 15.9844C23.8266 15.9844 24.75 15.061 24.75 13.9219C24.75 12.7828 23.8266 11.8594 22.6875 11.8594C21.5484 11.8594 20.625 12.7828 20.625 13.9219C20.625 15.061 21.5484 15.9844 22.6875 15.9844Z" fill="white"/>
</svg>
